<svg width="24" height="24" viewBox="0 0 24 24" fill="none" xmlns="http://www.w3.org/2000/svg">
<rect width="24" height="24" fill="#1C1C1F"/>
<path d="M19.6856 14.5136C19.1995 14.5136 18.7446 14.7315 18.4467 15.0584L14.2279 12.7393C14.2122 12.7238 14.1966 12.7238 14.1809 12.7082C13.9456 12.5837 13.6633 12.5059 13.381 12.5059C13.2399 12.5059 13.0987 12.5214 12.9576 12.5526C12.8164 12.5837 12.6753 12.6459 12.5341 12.7238C12.0323 13.0195 11.6873 13.5487 11.6873 14.1712V18.716C11.2325 18.8249 10.8561 19.1206 10.6365 19.5253C10.4953 19.7588 10.4326 20.0389 10.4326 20.3346C10.4326 21.2529 11.1854 22 12.1107 22C13.036 22 13.7888 21.2529 13.7888 20.3346C13.7888 20.0389 13.7104 19.7588 13.5692 19.5253C13.3497 19.1362 12.9733 18.8405 12.5185 18.716V14.1401C12.5185 13.6732 12.8949 13.2996 13.3654 13.2996C13.5065 13.2996 13.6476 13.3308 13.7731 13.393L15.0591 14.0934L18.0546 15.7588C18.0232 15.8988 18.0075 16.0389 18.0075 16.179C18.0075 16.4747 18.086 16.7549 18.2271 16.9883C18.5094 17.502 19.0583 17.8444 19.7013 17.8444C20.6266 17.8444 21.3794 17.0973 21.3794 16.179C21.3637 15.2607 20.6109 14.5136 19.6856 14.5136ZM12.8478 19.9455C12.9105 20.07 12.9576 20.2101 12.9576 20.3502C12.9576 20.8171 12.5812 21.1907 12.1107 21.1907C11.6402 21.1907 11.2638 20.8171 11.2638 20.3502C11.2638 20.2101 11.2952 20.07 11.3736 19.9455C11.5147 19.6965 11.797 19.5097 12.1107 19.5097C12.4401 19.5097 12.7067 19.6965 12.8478 19.9455ZM19.6856 17.0195C19.372 17.0195 19.1054 16.8483 18.9485 16.5992C18.8858 16.4747 18.8387 16.3346 18.8387 16.1946C18.8387 16.179 18.8387 16.1634 18.8387 16.1479C18.8544 15.8833 18.9956 15.6654 19.1838 15.5253C19.3249 15.4319 19.4974 15.3697 19.67 15.3697C20.1404 15.3697 20.5168 15.7432 20.5168 16.2101C20.5168 16.6459 20.1404 17.0195 19.6856 17.0195Z" fill="white"/>
<path d="M21.3627 7.83656C21.3627 6.91827 20.6099 6.17119 19.6846 6.17119C19.0573 6.17119 18.5084 6.5136 18.2104 7.02722C18.0692 7.26068 17.9908 7.54084 17.9908 7.83656C17.9908 7.97663 18.0065 8.11671 18.0379 8.25679L15.0581 9.90659L13.7721 10.607C13.6623 10.6692 13.5211 10.7159 13.38 10.7159C12.9095 10.7159 12.5331 10.3424 12.5331 9.87546V5.28404C12.9879 5.17509 13.3643 4.87937 13.5839 4.4747C13.725 4.24124 13.8034 3.96108 13.8034 3.66536C13.8034 2.74708 13.0507 2 12.1254 2C11.2001 2 10.4473 2.74708 10.4473 3.66536C10.4473 3.96108 10.5257 4.24124 10.6511 4.4747C10.8707 4.8638 11.2471 5.15952 11.7019 5.28404V9.82877C11.7019 10.4513 12.0469 10.9805 12.5488 11.2762C12.6743 11.3541 12.8154 11.4007 12.9722 11.4474C13.1134 11.4786 13.2545 11.4941 13.3957 11.4941C13.678 11.4941 13.9603 11.4163 14.1955 11.2918C14.2112 11.2762 14.2269 11.2762 14.2426 11.2607L18.4456 8.94161C18.7593 9.28402 19.1984 9.48636 19.6846 9.48636C20.6099 9.51748 21.3627 8.75484 21.3627 7.83656ZM12.1254 4.50583C11.8117 4.50583 11.5294 4.33462 11.3883 4.07003C11.3255 3.94552 11.2785 3.80544 11.2785 3.66536C11.2785 3.19844 11.6549 2.8249 12.1254 2.8249C12.5958 2.8249 12.9722 3.19844 12.9722 3.66536C12.9722 3.80544 12.9409 3.94552 12.8625 4.07003C12.7056 4.33462 12.439 4.50583 12.1254 4.50583ZM20.5158 7.83656C20.5158 8.30348 20.1394 8.67702 19.6689 8.67702C19.4807 8.67702 19.3239 8.61476 19.1827 8.52138C18.9789 8.3813 18.8534 8.14784 18.8377 7.89881C18.8377 7.88325 18.8377 7.86768 18.8377 7.85212C18.8377 7.69648 18.8691 7.5564 18.9475 7.44745C19.0886 7.19843 19.3709 7.02722 19.6846 7.02722C20.1394 7.01166 20.5158 7.3852 20.5158 7.83656Z" fill="white"/>
<path d="M3.84473 6.10883C3.04489 6.56019 2.7626 7.58743 3.21741 8.3812C3.53107 8.92594 4.11134 9.22166 4.69162 9.22166C4.97391 9.22166 5.25621 9.14384 5.50714 9.00377C5.6326 8.92594 5.74238 8.84812 5.85216 8.75474L8.7849 10.5135L10.0395 11.2606C10.1493 11.3384 10.2591 11.4318 10.3218 11.5563C10.5571 11.961 10.4159 12.4746 10.0082 12.6925L5.99331 14.9804C5.66397 14.6535 5.22484 14.4668 4.77003 14.4823C4.48774 14.4823 4.22112 14.5602 3.95451 14.7002C3.15468 15.1516 2.87238 16.1788 3.32719 16.9726C3.782 17.7664 4.81708 18.0465 5.61692 17.5952C5.86785 17.4551 6.07173 17.2528 6.22856 17.0037C6.4638 16.6146 6.54222 16.1477 6.41676 15.6963L10.4003 13.4395C10.9335 13.1283 11.2471 12.568 11.2471 11.9921C11.2471 11.8364 11.2315 11.6964 11.1844 11.5563C11.153 11.4162 11.0903 11.2917 11.0276 11.1672C10.8864 10.9182 10.6826 10.7158 10.4473 10.5757C10.4316 10.5602 10.4159 10.5602 10.4003 10.5446L6.27561 8.06992C6.41676 7.63412 6.38539 7.15163 6.13446 6.7314C5.67965 5.92206 4.66025 5.64191 3.84473 6.10883ZM5.52282 15.7275C5.67965 16.0076 5.66397 16.3189 5.50714 16.5679C5.42872 16.6925 5.33462 16.7858 5.20916 16.8637C4.8014 17.0971 4.29954 16.957 4.06429 16.5524C3.82905 16.1477 3.9702 15.6497 4.37796 15.4162C4.50342 15.3384 4.64457 15.3072 4.78572 15.3072C5.06801 15.3072 5.36599 15.4473 5.52282 15.7275ZM4.26817 6.82478C4.67593 6.59132 5.17779 6.7314 5.41304 7.13607C5.50714 7.29171 5.5385 7.46291 5.52282 7.63412C5.49145 7.88315 5.36599 8.10104 5.14643 8.24112C5.13074 8.25669 5.11506 8.25669 5.09938 8.27225C4.97391 8.35007 4.83276 8.3812 4.69162 8.3812C4.39364 8.3812 4.11134 8.22556 3.95451 7.96097C3.71927 7.57186 3.86041 7.05825 4.26817 6.82478Z" fill="white"/>
</svg>
