<svg width="95" height="25" viewBox="0 0 95 25" fill="none" xmlns="http://www.w3.org/2000/svg">
<path d="M20.4952 15.1378C19.9118 15.1378 19.366 15.3993 19.0085 15.7915L13.946 13.0087C13.9271 12.99 13.9083 12.99 13.8895 12.9713C13.6072 12.8219 13.2685 12.7285 12.9297 12.7285C12.7603 12.7285 12.5909 12.7472 12.4216 12.7845C12.2522 12.8219 12.0828 12.8966 11.9134 12.99C11.3112 13.3449 10.8972 13.9799 10.8972 14.727V20.1806C10.3514 20.3114 9.89973 20.6662 9.63626 21.1518C9.46688 21.432 9.3916 21.7682 9.3916 22.123C9.3916 23.225 10.2949 24.1215 11.4053 24.1215C12.5157 24.1215 13.419 23.225 13.419 22.123C13.419 21.7682 13.3249 21.432 13.1555 21.1518C12.8921 20.6849 12.4404 20.33 11.8946 20.1806V14.6896C11.8946 14.1293 12.3463 13.681 12.9109 13.681C13.0803 13.681 13.2496 13.7184 13.4002 13.7931L14.9434 14.6336L18.538 16.632C18.5003 16.8001 18.4815 16.9682 18.4815 17.1363C18.4815 17.4911 18.5756 17.8273 18.745 18.1075C19.0837 18.7238 19.7424 19.1347 20.514 19.1347C21.6244 19.1347 22.5277 18.2382 22.5277 17.1363C22.5089 16.0343 21.6056 15.1378 20.4952 15.1378ZM12.2898 21.6561C12.3651 21.8055 12.4216 21.9736 12.4216 22.1417C12.4216 22.702 11.9699 23.1503 11.4053 23.1503C10.8407 23.1503 10.389 22.702 10.389 22.1417C10.389 21.9736 10.4267 21.8055 10.5208 21.6561C10.6902 21.3573 11.0289 21.1332 11.4053 21.1332C11.8005 21.1332 12.1205 21.3573 12.2898 21.6561ZM20.4952 18.1448C20.1188 18.1448 19.7989 17.9394 19.6107 17.6406C19.5354 17.4911 19.479 17.3231 19.479 17.155C19.479 17.1363 19.479 17.1176 19.479 17.0989C19.4978 16.7814 19.6672 16.5199 19.893 16.3518C20.0624 16.2398 20.2694 16.1651 20.4764 16.1651C21.041 16.1651 21.4927 16.6133 21.4927 17.1736C21.4927 17.6966 21.041 18.1448 20.4952 18.1448Z" fill="#121214"/>
<path d="M22.5087 7.12496C22.5087 6.02302 21.6053 5.12652 20.495 5.12652C19.7422 5.12652 19.0835 5.53742 18.7259 6.15376C18.5565 6.43391 18.4624 6.7701 18.4624 7.12496C18.4624 7.29305 18.4812 7.46115 18.5189 7.62924L14.9431 9.609L13.3999 10.4495C13.2682 10.5242 13.0988 10.5802 12.9294 10.5802C12.3648 10.5802 11.9132 10.132 11.9132 9.57164V4.06194C12.4589 3.9312 12.9106 3.57633 13.1741 3.09073C13.3435 2.81058 13.4376 2.47439 13.4376 2.11953C13.4376 1.01759 12.5342 0.121094 11.4239 0.121094C10.3135 0.121094 9.41016 1.01759 9.41016 2.11953C9.41016 2.47439 9.50425 2.81058 9.65481 3.09073C9.91829 3.55766 10.37 3.91252 10.9157 4.06194V9.51561C10.9157 10.2627 11.3298 10.8977 11.932 11.2526C12.0826 11.346 12.2519 11.402 12.4401 11.458C12.6095 11.4954 12.7789 11.514 12.9483 11.514C13.287 11.514 13.6258 11.4207 13.9081 11.2712C13.9269 11.2526 13.9457 11.2526 13.9645 11.2339L19.0082 8.45102C19.3846 8.86192 19.9115 9.10472 20.495 9.10472C21.6053 9.14207 22.5087 8.2269 22.5087 7.12496ZM11.4239 3.12809C11.0475 3.12809 10.7087 2.92264 10.5393 2.60513C10.4641 2.45572 10.4076 2.28762 10.4076 2.11953C10.4076 1.55922 10.8593 1.11097 11.4239 1.11097C11.9885 1.11097 12.4401 1.55922 12.4401 2.11953C12.4401 2.28762 12.4025 2.45572 12.3084 2.60513C12.1202 2.92264 11.8003 3.12809 11.4239 3.12809ZM21.4924 7.12496C21.4924 7.68527 21.0407 8.13352 20.4761 8.13352C20.2503 8.13352 20.0621 8.05881 19.8927 7.94675C19.6481 7.77865 19.4975 7.4985 19.4787 7.19967C19.4787 7.18099 19.4787 7.16231 19.4787 7.14364C19.4787 6.95687 19.5163 6.78877 19.6104 6.65804C19.7798 6.3592 20.1186 6.15376 20.495 6.15376C21.0407 6.13508 21.4924 6.58333 21.4924 7.12496Z" fill="#121214"/>
<path d="M1.48731 5.05248C0.527505 5.59411 0.188751 6.82679 0.734522 7.77931C1.11092 8.43301 1.80724 8.78787 2.50357 8.78787C2.84233 8.78787 3.18108 8.69449 3.4822 8.52639C3.63275 8.43301 3.76449 8.33962 3.89623 8.22756L7.41551 10.3381L8.92109 11.2346C9.05282 11.3279 9.18456 11.44 9.25984 11.5894C9.54214 12.075 9.37276 12.6914 8.88345 12.9528L4.06561 15.6984C3.67039 15.3061 3.14344 15.082 2.59767 15.1007C2.25892 15.1007 1.93898 15.1941 1.61905 15.3622C0.659243 15.9038 0.320489 17.1365 0.86626 18.089C1.41203 19.0415 2.65413 19.3777 3.61393 18.8361C3.91505 18.668 4.15971 18.4252 4.3479 18.1264C4.6302 17.6594 4.7243 17.0991 4.57374 16.5575L9.35394 13.8493C9.99381 13.4758 10.3702 12.8034 10.3702 12.1124C10.3702 11.9256 10.3514 11.7575 10.2949 11.5894C10.2573 11.4213 10.182 11.2719 10.1067 11.1225C9.93735 10.8237 9.69269 10.5809 9.4104 10.4128C9.39158 10.3941 9.37276 10.3941 9.35394 10.3754L4.40436 7.40577C4.57374 6.88282 4.5361 6.30383 4.23498 5.79955C3.68921 4.82835 2.46593 4.49217 1.48731 5.05248ZM3.50102 16.5948C3.68921 16.931 3.67039 17.3046 3.4822 17.6034C3.3881 17.7528 3.27518 17.8649 3.12462 17.9583C2.63531 18.2384 2.03308 18.0703 1.75079 17.5847C1.46849 17.0991 1.63787 16.5015 2.12718 16.2213C2.27774 16.1279 2.44711 16.0906 2.61649 16.0906C2.95525 16.0906 3.31282 16.2587 3.50102 16.5948ZM1.99544 5.91162C2.48475 5.63146 3.08698 5.79955 3.36928 6.28516C3.4822 6.47193 3.51984 6.67737 3.50102 6.88282C3.46338 7.18165 3.31282 7.44313 3.04934 7.61122C3.03052 7.6299 3.0117 7.6299 2.99288 7.64858C2.84233 7.74196 2.67295 7.77931 2.50357 7.77931C2.146 7.77931 1.80724 7.59254 1.61905 7.27504C1.33675 6.80811 1.50613 6.19177 1.99544 5.91162Z" fill="#121214"/>
<path d="M31.1324 10.8495V16.7433C31.1324 17.2298 31.4702 17.5479 31.9956 17.5479H33.9098V18.7266H31.9206C30.6819 18.7266 29.8937 17.9408 29.8937 16.7059V10.8495H27.7168V9.76427H29.8937V6.52734H31.1324V9.74556H33.9098V10.8308H31.1324V10.8495Z" fill="#121214"/>
<path d="M40.8911 9.74414V10.9977H39.5023C38.1511 10.9977 37.2503 12.1765 37.2503 13.9914V18.6878H36.0117V9.74414H37.0251L37.2503 11.3158C37.5131 10.3803 38.4139 9.74414 39.5774 9.74414H40.8911Z" fill="#121214"/>
<path d="M50.5929 14.7224H43.2175C43.4052 16.6122 44.6251 17.8283 46.4267 17.8283C47.7966 17.8283 48.979 16.9864 49.3731 15.7515L50.3677 16.2005C49.8047 17.8283 48.2095 18.9323 46.4079 18.9323C43.7243 18.9323 41.9414 17.0425 41.9414 14.2546C41.9414 11.4668 43.7055 9.5957 46.3516 9.5957C48.8851 9.5957 50.5741 11.3732 50.5741 14.0488V14.7224H50.5929ZM43.2175 13.8617H49.3731C49.3168 11.8971 48.172 10.6435 46.3516 10.6435C44.5688 10.6435 43.3489 11.8971 43.2175 13.8617Z" fill="#121214"/>
<path d="M61.3296 14.2355C61.3296 17.0233 59.6969 18.9131 57.2009 18.9131C55.8497 18.9131 54.6111 18.1647 54.1607 17.0795H54.1419L53.9167 18.7073H52.9033V5.31055H54.1419V11.3915H54.1607C54.6299 10.3063 55.8497 9.57655 57.2009 9.57655C59.6969 9.57655 61.3296 11.4476 61.3296 14.2355ZM60.0535 14.2355C60.0535 12.1025 58.8524 10.6992 57.0696 10.6992C55.3242 10.6992 54.1607 12.1025 54.1607 14.2355C54.1607 16.3685 55.3242 17.7905 57.0696 17.7905C58.8336 17.7905 60.0535 16.3685 60.0535 14.2355Z" fill="#121214"/>
<path d="M65.5876 18.726C64.3302 18.726 63.542 17.9402 63.542 16.7053V5.31055H64.7806V16.7427C64.7806 17.2105 65.0996 17.5285 65.5876 17.5285H67.164V18.726H65.5876V18.726Z" fill="#121214"/>
<path d="M77.0343 14.7224H69.659C69.8466 16.6122 71.0665 17.8283 72.8681 17.8283C74.2381 17.8283 75.4204 16.9864 75.8145 15.7515L76.8091 16.2005C76.2461 17.8283 74.6509 18.9323 72.8493 18.9323C70.1657 18.9323 68.3828 17.0425 68.3828 14.2546C68.3828 11.4668 70.1469 9.5957 72.793 9.5957C75.3265 9.5957 77.0155 11.3732 77.0155 14.0488V14.7224H77.0343ZM69.659 13.8617H75.8332C75.7769 11.8971 74.6322 10.6435 72.8118 10.6435C71.0289 10.6435 69.7903 11.8971 69.659 13.8617Z" fill="#121214"/>
<path d="M90.9414 17.5659V18.7072H90.2471C89.365 18.7072 88.8208 18.1646 88.7645 17.3601C88.1077 18.3143 86.9629 18.913 85.5178 18.913C83.6224 18.913 82.3838 17.9214 82.3838 16.3497C82.3838 15.0961 83.416 14.1231 85.0487 13.8799L88.0701 13.3934C88.5018 13.3186 88.7833 13.0005 88.7833 12.5702C88.7833 11.4288 87.8449 10.5869 86.5313 10.5869C85.1237 10.5869 84.0353 11.4288 83.8851 12.5889L82.7779 12.3456C83.0594 10.6243 84.5232 9.53906 86.5313 9.53906C88.6894 9.53906 90.0406 10.7552 90.0406 12.6263V17.0046C90.0406 17.3414 90.2471 17.5472 90.5661 17.5472H90.9414V17.5659ZM88.7645 14.9838V14.2354L85.4052 14.7593C84.3355 14.909 83.6412 15.5451 83.6412 16.331C83.6412 17.2665 84.4669 17.9027 85.7055 17.9027C87.5447 17.9027 88.7645 16.7426 88.7645 14.9838Z" fill="#121214"/>
<path d="M94.2074 9.74414H92.9688V18.7065H94.2074V9.74414Z" fill="#121214"/>
<path d="M80.5446 17.8289C80.5446 18.3715 80.1693 18.727 79.6063 18.727C79.0433 18.727 78.668 18.3715 78.668 17.8289C78.668 17.2863 79.0433 16.9121 79.6063 16.9121C80.1693 16.9121 80.5446 17.2863 80.5446 17.8289Z" fill="#121214"/>
<path d="M94.5271 6.39533C94.5271 6.93794 94.1517 7.29344 93.5887 7.29344C93.0257 7.29344 92.6504 6.93794 92.6504 6.39533C92.6504 5.85273 93.0257 5.47852 93.5887 5.47852C94.1517 5.47852 94.5271 5.85273 94.5271 6.39533Z" fill="#121214"/>
</svg>
